Coordinates
version=1
nRows=13
nColumns=27
inDegrees=yes

Units are S.I. units (second, meters, Newtons, ...)
If the header above contains a line with 'inDegrees', this indicates whether rotational values are in degrees (yes) or radians (no).

endheader
time	pelvis_rotation	pelvis_tilt	pelvis_list	pelvis_tx	pelvis_ty	pelvis_tz	hip_flexion_r	hip_adduction_r	hip_rotation_r	knee_angle_r	knee_rotation_r	knee_adduction_r	knee_angle_r_beta	ankle_angle_r	subtalar_angle_r	mtp_angle_r	hip_flexion_l	hip_adduction_l	hip_rotation_l	knee_angle_l	knee_rotation_l	knee_adduction_l	knee_angle_l_beta	ankle_angle_l	subtalar_angle_l	mtp_angle_l
      4.64000000	      3.91451591	    -30.97940733	      3.29292791	      0.03550820	      0.44774342	     -1.15493071	    128.77739775	    -43.32107702	     27.34899422	    109.61262028	      0.00000000	      0.00000000	      1.91310113	     15.50979667	      0.00000000	      0.00000000	    122.58632111	    -32.00491410	     22.77275699	    102.61598335	      0.00000000	      0.00000000	      1.79098677	     11.06011909	      0.00000000	      0.00000000
      4.64500000	      3.99426853	    -31.02231077	      3.29126165	      0.03511635	      0.44810218	     -1.15500308	    128.77172897	    -43.35245976	     27.32071195	    109.55891254	      0.00000000	      0.00000000	      1.91216375	     15.46532704	      0.00000000	      0.00000000	    122.61970056	    -31.89924694	     22.72744884	    102.56619496	      0.00000000	      0.00000000	      1.79011780	     10.98154792	      0.00000000	      0.00000000
      4.65000000	      3.85948839	    -31.03874306	      3.27355356	      0.03462379	      0.44866208	     -1.15499338	    128.59721063	    -43.10106400	     27.19057352	    109.47233252	      0.00000000	      0.00000000	      1.91065264	     15.47068353	      0.00000000	      0.00000000	    122.58336586	    -32.03898161	     22.67243429	    102.48433283	      0.00000000	      0.00000000	      1.78868904	     10.97029436	      0.00000000	      0.00000000
      4.65500000	      4.15170537	    -31.14650124	      3.30751482	      0.03423205	      0.44900830	     -1.15514428	    128.77944440	    -43.38327877	     27.26570006	    109.42844253	      0.00000000	      0.00000000	      1.90988662	     15.36346756	      0.00000000	      0.00000000	    122.69777125	    -31.70633734	     22.59478159	    102.43980236	      0.00000000	      0.00000000	      1.78791184	     10.77922191	      0.00000000	      0.00000000
      4.66000000	      4.16410056	    -31.25235314	      3.41529099	      0.03369394	      0.44953328	     -1.15519002	    128.88967134	    -43.21503815	     27.33900362	    109.36744608	      0.00000000	      0.00000000	      1.90882203	     15.28929451	      0.00000000	      0.00000000	    122.70600930	    -31.75619145	     22.41193732	    102.35262753	      0.00000000	      0.00000000	      1.78639035	     10.66713668	      0.00000000	      0.00000000
      4.66500000	      4.30265975	    -31.31844426	      3.40185946	      0.03320031	      0.45018063	     -1.15528983	    128.86389248	    -43.32437811	     27.27324119	    109.26660663	      0.00000000	      0.00000000	      1.90706205	     15.18190683	      0.00000000	      0.00000000	    122.73038485	    -31.56792575	     22.34812064	    102.26689655	      0.00000000	      0.00000000	      1.78489406	     10.60829204	      0.00000000	      0.00000000
      4.67000000	      4.39507021	    -31.39641370	      3.40213160	      0.03266136	      0.45085708	     -1.15536879	    128.83994377	    -43.35415945	     27.20625985	    109.17256162	      0.00000000	      0.00000000	      1.90542065	     15.14553815	      0.00000000	      0.00000000	    122.77533366	    -31.45769164	     22.26772382	    102.17008574	      0.00000000	      0.00000000	      1.78320439	     10.42638555	      0.00000000	      0.00000000
      4.67500000	      4.43724135	    -31.50760288	      3.46531523	      0.03207283	      0.45160480	     -1.15543207	    128.87986291	    -43.25929331	     27.19769549	    109.07207925	      0.00000000	      0.00000000	      1.90366690	     15.06473334	      0.00000000	      0.00000000	    122.78936157	    -31.44241514	     22.11170030	    102.05866423	      0.00000000	      0.00000000	      1.78125972	     10.30790784	      0.00000000	      0.00000000
      4.68000000	      4.53198511	    -31.59737613	      3.48593116	      0.03146951	      0.45242190	     -1.15551184	    128.86659775	    -43.26853363	     27.13766401	    108.95933716	      0.00000000	      0.00000000	      1.90169918	     14.98520167	      0.00000000	      0.00000000	    122.80755947	    -31.33155268	     21.99680699	    101.94393309	      0.00000000	      0.00000000	      1.77925728	     10.16926088	      0.00000000	      0.00000000
      4.68500000	      4.61169758	    -31.69921060	      3.56599825	      0.03081833	      0.45330550	     -1.15560198	    128.90677515	    -43.20977916	     27.13831675	    108.83434735	      0.00000000	      0.00000000	      1.89951770	     14.86114317	      0.00000000	      0.00000000	    122.78194390	    -31.27652022	     21.80876235	    101.80902008	      0.00000000	      0.00000000	      1.77690261	     10.03616202	      0.00000000	      0.00000000
      4.69000000	      4.73122842	    -31.79823020	      3.53741613	      0.03018914	      0.45424865	     -1.15572402	    128.83699578	    -43.29291677	     27.00382223	    108.69921567	      0.00000000	      0.00000000	      1.89715921	     14.81837905	      0.00000000	      0.00000000	    122.82103302	    -31.09785238	     21.73400806	    101.68830122	      0.00000000	      0.00000000	      1.77479567	      9.92592962	      0.00000000	      0.00000000
      4.69500000	      4.87863478	    -31.88879328	      3.54149949	      0.02950505	      0.45528115	     -1.15585397	    128.78084302	    -43.37625641	     26.90366682	    108.54622584	      0.00000000	      0.00000000	      1.89448903	     14.71495732	      0.00000000	      0.00000000	    122.82457658	    -30.90423734	     21.61814683	    101.54313481	      0.00000000	      0.00000000	      1.77226204	      9.72633798	      0.00000000	      0.00000000
      4.70000000	      4.87126322	    -32.03499654	      3.58767976	      0.02876673	      0.45631082	     -1.15593496	    128.78712842	    -43.22130296	     26.82723459	    108.40570331	      0.00000000	      0.00000000	      1.89203645	     14.60423136	      0.00000000	      0.00000000	    122.84086310	    -30.92042889	     21.46117067	    101.39914011	      0.00000000	      0.00000000	      1.76974885	      9.65705329	      0.00000000	      0.00000000
